<?xml version="1.0" encoding="iso-8859-1"?>
<!-- Generator: Adobe Illustrator 15.1.0, SVG Export Plug-In . SVG Version: 6.00 Build 0)  -->
<!DOCTYPE svg PUBLIC "-//W3C//DTD SVG 1.1//EN" "http://www.w3.org/Graphics/SVG/1.1/DTD/svg11.dtd">
<svg version="1.1" xmlns="http://www.w3.org/2000/svg" xmlns:xlink="http://www.w3.org/1999/xlink" x="0px" y="0px" width="200px" height="200px" viewBox="0 0 26.749 29.93" style="enable-background:new 0 0 26.749 29.93;" xml:space="preserve">
	<g id="Onweer_regen_kans_dag">
		<g id="Enkele_onweer-_en_regenbuien_2_">
			<g>
				<path style="fill-rule:evenodd;clip-rule:evenodd;fill:#F5B61A;" d="M25.761,12.85l-1.982-0.002
				c-0.546,0-0.986-0.441-0.986-0.988c0.001-0.547,0.441-0.986,0.986-0.988l1.982,0.002c0.544,0,0.989,0.441,0.988,0.99
				C26.748,12.408,26.304,12.85,25.761,12.85z" />
				<path style="fill-rule:evenodd;clip-rule:evenodd;fill:#F5B61A;" d="M21.875,6.271c-0.388,0.385-1.012,0.383-1.399-0.002
				c-0.385-0.387-0.385-1.012,0.003-1.398l1.398-1.395c0.388-0.389,1.015-0.389,1.401,0.002c0.384,0.385,0.384,1.01,0,1.395
				L21.875,6.271z" />
				<path style="fill-rule:evenodd;clip-rule:evenodd;fill:#F5B61A;" d="M14.882,3.953c-0.548,0-0.99-0.443-0.99-0.99l0.001-1.975
				C13.894,0.441,14.337,0,14.883,0c0.545,0,0.989,0.443,0.989,0.988L15.87,2.967C15.87,3.512,15.427,3.953,14.882,3.953z" />
				<path style="fill-rule:evenodd;clip-rule:evenodd;fill:#F5B61A;" d="M7.882,6.262L6.483,4.863
				c-0.387-0.385-0.387-1.01,0.001-1.396s1.013-0.387,1.399,0l1.398,1.398c0.387,0.387,0.387,1.01-0.001,1.396
				C8.893,6.648,8.267,6.648,7.882,6.262z" />
				<path style="fill-rule:evenodd;clip-rule:evenodd;fill:#F5B61A;" d="M11.582,9.668c0.71-1.062,1.92-1.764,3.298-1.764
				c2.184,0,3.952,1.77,3.95,3.955c0,0.643-0.168,1.244-0.442,1.781c0.582,0.424,1.059,0.967,1.357,1.602
				c0.672-0.959,1.068-2.125,1.069-3.383c0.002-3.273-2.654-5.932-5.935-5.934c-2.303,0-4.296,1.312-5.284,3.223
				C10.317,9.178,10.987,9.365,11.582,9.668z" />
			</g>
			<path style="fill-rule:evenodd;clip-rule:evenodd;fill:#77787B;" d="M17.262,21.723C18.852,21.195,20,19.697,20,17.93
			c0-2.211-1.791-4-4-4c-0.801,0-1.542,0.24-2.167,0.645C13.217,11.916,10.846,9.93,8,9.93c-3.313,0-6,2.686-6,6l-1.34,3.188
			C0.235,18.141,0,17.062,0,15.93c0-4.418,3.582-8,8-8c3.002,0,5.614,1.656,6.983,4.102c0.332-0.057,0.668-0.102,1.017-0.102
			c3.313,0,6,2.686,6,6c0,2.973-2.162,5.441-5,5.916L17.262,21.723z" />
			<polygon style="fill-rule:evenodd;clip-rule:evenodd;fill:#F5B61A;" points="4.5,16.93 9.5,16.93 6.5,21.93 10,21.93 3.5,29.93
			5.3,23.93 2,23.93 		" />
			<path style="fill-rule:evenodd;clip-rule:evenodd;fill:#00B6F1;" d="M15.565,21.494c-0.581,0.58-1.521,0.58-2.103,0
			c-0.58-0.582-0.58-1.523,0-2.104l1.051-1.053l1.052,1.053C16.146,19.971,16.146,20.912,15.565,21.494z" />
			<path style="fill-rule:evenodd;clip-rule:evenodd;fill:#00B6F1;" d="M10.992,26.494c-0.579-0.58-0.579-1.521,0-2.104l1.052-1.051
			l1.052,1.051c0.58,0.582,0.58,1.523,0,2.104C12.515,27.074,11.573,27.074,10.992,26.494z" />
		</g>
	</g>
	<g id="Layer_1"></g>
</svg>
